<svg width="100" height="69" viewBox="0 0 100 69" fill="none" xmlns="http://www.w3.org/2000/svg">
<path d="M74.3794 42.1025V42.5694L98.5534 45.9492C98.5534 45.9492 101.808 42.0715 98.5534 38.1942L74.3794 42.1025Z" fill="#FDEE21"/>
<path d="M22.0276 63.0319V64.0963H24.7688V69H26.1569V64.0963H28.9095V63.0319H22.0276Z" fill="url(#paint0_radial_3207_5628)"/>
<path d="M31.963 63.0319C31.4002 63.0319 31.0124 63.129 30.8003 63.3211C30.5887 63.5144 30.4827 63.8883 30.4827 64.4429V67.589C30.4827 68.1444 30.5887 68.5184 30.8003 68.7109C31.0124 68.9038 31.4002 69 31.963 69H36.3582C36.9209 69 37.3083 68.9038 37.5208 68.7109C37.7324 68.5184 37.8384 68.1444 37.8384 67.589V64.4429C37.8384 63.8883 37.7324 63.5144 37.5208 63.3211C37.3083 63.129 36.9209 63.0319 36.3582 63.0319H31.963ZM31.8704 64.0963H36.4507V67.8782H31.8704V64.0963Z" fill="url(#paint1_radial_3207_5628)"/>
<path d="M42.1178 63.0319C41.5555 63.0319 41.1673 63.129 40.9556 63.3211C40.7436 63.5144 40.6379 63.8883 40.6379 64.4429V67.589C40.6379 68.1444 40.7436 68.5184 40.9556 68.7109C41.1673 68.9038 41.5555 69 42.1178 69H46.513C47.0758 69 47.4632 68.9038 47.6756 68.7109C47.8877 68.5184 47.9933 68.1444 47.9933 67.589V64.4429C47.9933 63.8883 47.8877 63.5144 47.6756 63.3211C47.4632 63.129 47.0758 63.0319 46.513 63.0319H42.1178ZM42.0253 64.0963H46.6052V67.8782H42.0253V64.0963Z" fill="url(#paint2_radial_3207_5628)"/>
<path d="M50.9192 63.0319V69H56.7833V67.8782H52.3073V63.0319H50.9192Z" fill="url(#paint3_radial_3207_5628)"/>
<path d="M63.5267 63.0319L60.2186 65.5187V63.0319H58.8191V69H60.2186V66.3746L63.7925 69H66.0248L61.5835 65.8425L65.5395 63.0319H63.5267Z" fill="url(#paint4_radial_3207_5628)"/>
<path d="M68.0024 69H69.3902V63.0319H68.0024V69Z" fill="url(#paint5_radial_3207_5628)"/>
<path d="M71.0906 63.0319V64.0963H73.8314V69H75.2195V64.0963H77.9725V63.0319H71.0906Z" fill="url(#paint6_radial_3207_5628)"/>
<path fill-rule="evenodd" clip-rule="evenodd" d="M69.5437 12.3584L69.5457 12.3594L69.5437 12.3584Z" fill="#62467B"/>
<path d="M32.7965 15.4397L32.7949 15.4368C26.2677 19.0507 24.9713 22.8444 30.4562 26.3355C27.7329 23.291 28.3833 21.0024 30.2898 19.7562C30.2833 19.9703 30.2796 20.1856 30.2796 20.4017C30.2796 25.1105 31.8932 29.4433 34.5981 32.877C49.4899 30.1398 60.8372 26.7849 67.2041 23.2579L67.2053 23.2608C73.7324 19.6465 75.0288 15.8528 69.544 12.3613C71.8264 14.9128 71.7391 16.9335 70.5296 18.2547C70.0219 13.4611 67.8353 9.16784 64.5693 5.974C50.0853 8.68257 39.0443 11.9788 32.7965 15.4397Z" fill="url(#paint7_radial_3207_5628)"/>
<path fill-rule="evenodd" clip-rule="evenodd" d="M30.4576 26.334L30.4556 26.333L30.4576 26.334Z" fill="#62467B"/>
<path d="M53.9568 32.7712L53.9544 32.7699C45.279 34.2706 34.8113 35.3321 22.9042 35.7199L22.8936 35.7219C26.7676 36.0486 32.1072 36.1815 37.6944 36.029C41.1733 38.8742 45.6178 40.582 50.4612 40.582C58.3981 40.582 65.2645 35.9968 68.5607 29.3326C64.5272 30.6229 59.6251 31.7908 53.9568 32.7712Z" fill="url(#paint8_radial_3207_5628)"/>
<path d="M34.1201 8.55859C37.5851 7.58519 41.577 6.6966 46.0444 5.92424L46.0456 5.92506C48.3293 5.52991 50.7369 5.16535 53.2619 4.83585L53.3553 4.8232L53.6653 4.78323L53.8545 4.75918L54.0563 4.73349L54.345 4.69679L54.5428 4.67232L54.8528 4.63439L54.9514 4.62216C57.2273 4.34486 59.5942 4.09489 62.0466 3.8759L62.0462 3.87549C66.7554 3.45546 71.7823 3.14798 77.0959 2.97508L77.1065 2.97304C72.7537 2.60602 66.5499 2.4837 60.2238 2.7353C57.3305 1.13227 54.0025 0.218801 50.4612 0.218801C43.7412 0.218801 37.7882 3.50603 34.1201 8.55859Z" fill="url(#paint9_radial_3207_5628)"/>
<path fill-rule="evenodd" clip-rule="evenodd" d="M50.6492 11.4955H55.6879V16.5342H50.6492V11.4955Z" fill="#FEFEFE"/>
<path fill-rule="evenodd" clip-rule="evenodd" d="M42.2488 13.2935H49.5988V20.6436H42.2488V13.2935Z" fill="#FEFEFE"/>
<path fill-rule="evenodd" clip-rule="evenodd" d="M50.4749 18.1734H57.8249V25.5234H50.4749V18.1734Z" fill="#FEFEFE"/>
<path d="M3.77412 46.4488C3.02052 46.7803 2.36194 47.2436 1.79673 47.8381C1.23194 48.4339 0.791117 49.1309 0.475077 49.9289C0.158221 50.7278 0 51.556 0 52.4148C0 53.2732 0.158221 54.1027 0.475077 54.9007C0.791117 55.6996 1.23194 56.3961 1.79673 56.9915C2.36194 57.5865 3.02052 58.0497 3.77412 58.3812C4.52732 58.7124 5.31803 58.8779 6.14708 58.8779C7.41246 58.8779 8.56488 58.5015 9.60476 57.7483C10.6442 56.9951 11.3901 56.0156 11.8419 54.8106H10.4407C10.1394 55.428 9.72506 55.9708 9.19778 56.4373C8.6705 56.9046 8.1314 57.2251 7.5821 57.398C7.03158 57.5714 6.5459 57.6578 6.12424 57.6578C5.46117 57.6578 4.82827 57.5188 4.22637 57.2398C3.62365 56.9613 3.09964 56.5768 2.65555 56.087C2.21105 55.5976 1.8681 55.0324 1.62709 54.3926C1.38609 53.752 1.26579 53.0852 1.26579 52.3924H12.2713C12.2713 51.534 12.1131 50.7086 11.7966 49.9175C11.4802 49.1264 11.0398 48.4339 10.4746 47.8381C9.90979 47.2436 9.25079 46.7803 8.49719 46.4488C7.74359 46.1177 6.96062 45.9517 6.14708 45.9517C5.31803 45.9517 4.52732 46.1177 3.77412 46.4488ZM3.14123 48.3132C4.02981 47.5674 5.03217 47.1951 6.14708 47.1951C6.68944 47.1951 7.22039 47.2925 7.74032 47.4887C8.26026 47.684 8.73044 47.9629 9.15251 48.3246C9.57417 48.6859 9.93222 49.108 10.2262 49.59C10.5198 50.0724 10.7343 50.5842 10.8701 51.1266H1.40117C1.67236 49.997 2.25224 49.0591 3.14123 48.3132Z" fill="url(#paint10_radial_3207_5628)"/>
<path d="M22.192 46.3127L18.0113 51.5785L13.8306 46.3127H12.3389L22.192 58.6064H23.6833L18.8248 52.4598L23.6833 46.3127H22.192ZM12.3389 58.6064H13.8306L17.6724 53.7933L16.9041 52.8668L12.3389 58.6064Z" fill="url(#paint11_radial_3207_5628)"/>
<path d="M27.4123 46.4488C26.6587 46.7803 25.9997 47.2436 25.4349 47.8381C24.8701 48.4339 24.4293 49.1309 24.1133 49.9289C23.7964 50.7278 23.6382 51.556 23.6382 52.4148C23.6382 53.2732 23.7964 54.1027 24.1133 54.9007C24.4293 55.6996 24.8701 56.3961 25.4349 56.9915C25.9997 57.5865 26.6587 58.0497 27.4123 58.3812C28.1655 58.7124 28.9562 58.8779 29.7857 58.8779C31.0511 58.8779 32.2035 58.5015 33.2429 57.7483C34.282 56.9951 35.0279 56.0156 35.4801 54.8106H34.0793C33.7776 55.428 33.3637 55.9708 32.836 56.4373C32.3087 56.9046 31.77 57.2251 31.2207 57.398C30.6698 57.5714 30.1845 57.6578 29.7628 57.6578C29.0994 57.6578 28.4669 57.5188 27.8646 57.2398C27.2614 56.9613 26.7382 56.5768 26.2937 56.087C25.8492 55.5976 25.5063 55.0324 25.2653 54.3926C25.0247 53.752 24.9044 53.0852 24.9044 52.3924H35.9099C35.9099 51.534 35.7513 50.7086 35.4348 49.9175C35.1184 49.1264 34.678 48.4339 34.1128 47.8381C33.5476 47.2436 32.8886 46.7803 32.1354 46.4488C31.3818 46.1177 30.5988 45.9517 29.7857 45.9517C28.9562 45.9517 28.1655 46.1177 27.4123 46.4488ZM26.7798 48.3132C27.668 47.5674 28.6704 47.1951 29.7857 47.1951C30.328 47.1951 30.8586 47.2925 31.3781 47.4887C31.8985 47.684 32.369 47.9629 32.7911 48.3246C33.2124 48.6859 33.5704 49.108 33.8644 49.59C34.158 50.0724 34.3729 50.5842 34.5087 51.1266H25.0398C25.3105 49.997 25.8908 49.0591 26.7798 48.3132Z" fill="url(#paint12_radial_3207_5628)"/>
<path d="M41.2197 46.4488C40.4661 46.7803 39.8071 47.2436 39.2423 47.8381C38.6775 48.4339 38.2367 49.1309 37.9206 49.9289C37.6038 50.7278 37.4456 51.556 37.4456 52.4148C37.4456 53.2732 37.6038 54.1027 37.9206 54.9007C38.2367 55.6996 38.6775 56.3961 39.2423 56.9915C39.8071 57.5865 40.4661 58.0497 41.2197 58.3812C41.9729 58.7124 42.7636 58.8779 43.5926 58.8779C44.858 58.8779 46.0141 58.4979 47.0613 57.7369C48.1085 56.9764 48.8581 55.9781 49.3099 54.7421H47.9316C47.6298 55.3754 47.2159 55.9288 46.6886 56.4038C46.1609 56.8781 45.6222 57.206 45.0729 57.3866C44.5228 57.5673 44.0294 57.6578 43.5926 57.6578C42.9451 57.6578 42.3191 57.522 41.7168 57.2512C41.1145 56.9801 40.5868 56.5992 40.135 56.1098C39.6831 55.6201 39.3287 55.0553 39.0726 54.415C38.8166 53.7744 38.6885 53.1081 38.6885 52.4148C38.6885 51.7224 38.8166 51.0556 39.0726 50.4146C39.3287 49.7752 39.6831 49.2136 40.135 48.7312C40.5868 48.2488 41.1145 47.8724 41.7168 47.6012C42.3191 47.3304 42.9451 47.1951 43.5926 47.1951C44.2553 47.1951 44.8992 47.3455 45.5252 47.6465C46.1499 47.9483 46.6548 48.3246 47.0389 48.7765C47.423 49.2283 47.713 49.6504 47.9087 50.0423H49.2875C49.0163 49.3038 48.5905 48.6072 48.0107 47.9519C47.4308 47.2962 46.7449 46.7995 45.9542 46.4598C45.163 46.1209 44.3756 45.9517 43.5926 45.9517C42.7636 45.9517 41.9729 46.1177 41.2197 46.4488Z" fill="url(#paint13_radial_3207_5628)"/>
<path d="M60.5198 46.313V52.8442C60.5198 54.2907 60.1393 55.4508 59.3784 56.3243C58.6178 57.1982 57.582 57.6354 56.2714 57.6354C54.9302 57.6354 53.8874 57.1946 53.1412 56.3133C52.3953 55.4317 52.0226 54.2756 52.0226 52.8442V46.313H50.7344V52.8442C50.7344 53.6884 50.8592 54.4827 51.1079 55.2286C51.3563 55.9744 51.7176 56.6179 52.1922 57.1607C52.6669 57.7035 53.2545 58.1251 53.9551 58.4261C54.6557 58.7275 55.4273 58.8779 56.2714 58.8779C57.3113 58.8779 58.2712 58.6255 59.1529 58.1211C60.0341 57.6166 60.6931 56.8822 61.1298 55.9178C61.5666 54.9537 61.7852 53.929 61.7852 52.8442V46.313H60.5198Z" fill="url(#paint14_radial_3207_5628)"/>
<path d="M63.7737 41.5218V52.4148C63.7737 53.2887 63.9315 54.1214 64.2479 54.9121C64.5644 55.7033 65.0052 56.3961 65.57 56.9915C66.1348 57.5865 66.7942 58.0497 67.547 58.3812C68.3006 58.7124 69.0917 58.8779 69.9204 58.8779V57.6125C69.1068 57.6125 68.3079 57.3834 67.525 56.9234C66.7412 56.4638 66.1348 55.8162 65.7058 54.9802C65.276 54.1439 65.0619 53.2887 65.0619 52.4148V47.5788H69.9204V46.313H65.0619V41.5218H63.7737Z" fill="url(#paint15_radial_3207_5628)"/>
<path d="M86.464 46.3127L81.65 57.2057L76.8368 46.3127H75.5261L80.9722 58.6064H82.3281L87.7742 46.3127H86.464Z" fill="url(#paint16_radial_3207_5628)"/>
<path d="M91.502 46.4488C90.7488 46.7803 90.0894 47.2436 89.5246 47.8381C88.9598 48.4339 88.519 49.1309 88.2029 49.9289C87.8865 50.7278 87.7283 51.556 87.7283 52.4148C87.7283 53.2732 87.8865 54.1027 88.2029 54.9007C88.519 55.6996 88.9598 56.3961 89.5246 56.9915C90.0894 57.5865 90.7488 58.0497 91.502 58.3812C92.2552 58.7124 93.0463 58.8779 93.8753 58.8779C95.1407 58.8779 96.2931 58.5015 97.333 57.7483C98.3721 56.9951 99.1175 56.0156 99.5698 54.8106H98.169C97.8672 55.428 97.4533 55.9708 96.9261 56.4373C96.3984 56.9046 95.8597 57.2251 95.3104 57.398C94.7598 57.5714 94.2742 57.6578 93.8525 57.6578C93.1894 57.6578 92.5565 57.5188 91.9542 57.2398C91.3515 56.9613 90.8279 56.5768 90.3834 56.087C89.9389 55.5976 89.5964 55.0324 89.355 54.3926C89.1144 53.752 88.9941 53.0852 88.9941 52.3924H99.9996C99.9996 51.534 99.841 50.7086 99.5249 49.9175C99.2081 49.1264 98.7676 48.4339 98.2028 47.8381C97.6376 47.2436 96.9782 46.7803 96.2255 46.4488C95.4714 46.1177 94.6885 45.9517 93.8753 45.9517C93.0463 45.9517 92.2552 46.1177 91.502 46.4488ZM90.8691 48.3132C91.7581 47.5674 92.7604 47.1951 93.8753 47.1951C94.4177 47.1951 94.9482 47.2925 95.4682 47.4887C95.9881 47.684 96.4587 47.9629 96.8808 48.3246C97.302 48.6859 97.6605 49.108 97.9541 49.59C98.2477 50.0724 98.4626 50.5842 98.5984 51.1266H89.1294C89.4002 49.997 89.9805 49.0591 90.8691 48.3132Z" fill="url(#paint17_radial_3207_5628)"/>
<path d="M73.0156 41.4348C73.0156 41.4348 72.2791 41.5853 72.2791 41.8157C72.2791 41.8157 72.2477 42.0527 72.4614 42.0527H73.9278C74.1419 42.0527 74.1101 41.8157 74.1101 41.8157C74.1101 41.5853 73.3732 41.4348 73.3732 41.4348L73.1942 40.6743L73.0156 41.4348ZM72.1466 42.7484C72.0389 42.7484 71.9516 42.8356 71.9516 42.9429V43.0452C71.9516 43.1525 72.0389 43.2397 72.1466 43.2397H72.3337V44.9712C72.3337 46.2126 74.055 46.6925 74.055 46.6925V43.2397H74.2422C74.3499 43.2397 74.4371 43.1525 74.4371 43.0452V42.9429C74.4371 42.8356 74.3499 42.7484 74.2422 42.7484H72.1466ZM73.2048 49.1666C74.6643 50.4997 74.7181 51.2928 74.7181 51.2928C74.7181 48.2833 73.6913 47.6166 73.6913 47.6166C72.1054 46.2289 71.9435 45.6343 71.9435 45.6343C71.9435 46.7337 71.7453 47.8327 73.2048 49.1666ZM73.1807 54.1323C74.9285 55.8548 74.9934 56.8792 74.9934 56.8792C74.9934 52.9917 73.7635 52.13 73.7635 52.13C71.8644 50.3378 71.6702 49.5695 71.6702 49.5695C71.6702 50.9894 71.4329 52.4098 73.1807 54.1323ZM73.2048 58.7396C74.6643 60.073 74.7181 60.8662 74.7181 60.8662C74.7181 57.8567 73.6913 57.1899 73.6913 57.1899C72.1054 55.8022 71.9435 55.2077 71.9435 55.2077C71.9435 56.3067 71.7453 57.4061 73.2048 58.7396Z" fill="url(#paint18_radial_3207_5628)"/>
<defs>
<radialGradient id="paint0_radial_3207_5628" cx="0" cy="0" r="1" gradientUnits="userSpaceOnUse" gradientTransform="translate(25.4687 66.016) scale(3.22058)">
<stop stop-color="#B2B2B2"/>
<stop offset="1" stop-color="#878787"/>
</radialGradient>
<radialGradient id="paint1_radial_3207_5628" cx="0" cy="0" r="1" gradientUnits="userSpaceOnUse" gradientTransform="translate(34.1606 66.016) scale(3.34899 3.34899)">
<stop stop-color="#B2B2B2"/>
<stop offset="1" stop-color="#878787"/>
</radialGradient>
<radialGradient id="paint2_radial_3207_5628" cx="0" cy="0" r="1" gradientUnits="userSpaceOnUse" gradientTransform="translate(44.3156 66.016) scale(3.349 3.34899)">
<stop stop-color="#B2B2B2"/>
<stop offset="1" stop-color="#878787"/>
</radialGradient>
<radialGradient id="paint3_radial_3207_5628" cx="0" cy="0" r="1" gradientUnits="userSpaceOnUse" gradientTransform="translate(53.8513 66.016) scale(2.95819)">
<stop stop-color="#B2B2B2"/>
<stop offset="1" stop-color="#878787"/>
</radialGradient>
<radialGradient id="paint4_radial_3207_5628" cx="0" cy="0" r="1" gradientUnits="userSpaceOnUse" gradientTransform="translate(62.422 66.016) scale(3.30803 3.30803)">
<stop stop-color="#B2B2B2"/>
<stop offset="1" stop-color="#878787"/>
</radialGradient>
<radialGradient id="paint5_radial_3207_5628" cx="0" cy="0" r="1" gradientUnits="userSpaceOnUse" gradientTransform="translate(68.6961 66.016) scale(2.16639 2.16638)">
<stop stop-color="#B2B2B2"/>
<stop offset="1" stop-color="#878787"/>
</radialGradient>
<radialGradient id="paint6_radial_3207_5628" cx="0" cy="0" r="1" gradientUnits="userSpaceOnUse" gradientTransform="translate(74.5315 66.016) scale(3.22058)">
<stop stop-color="#B2B2B2"/>
<stop offset="1" stop-color="#878787"/>
</radialGradient>
<radialGradient id="paint7_radial_3207_5628" cx="0" cy="0" r="1" gradientUnits="userSpaceOnUse" gradientTransform="translate(50.0001 19.4255) scale(26.6267 26.6267)">
<stop stop-color="#B2B2B2"/>
<stop offset="1" stop-color="#878787"/>
</radialGradient>
<radialGradient id="paint8_radial_3207_5628" cx="0" cy="0" r="1" gradientUnits="userSpaceOnUse" gradientTransform="translate(49.8372 23.7081) scale(31.7921 31.7921)">
<stop stop-color="#0072B8"/>
<stop offset="1" stop-color="#1A3861"/>
</radialGradient>
<radialGradient id="paint9_radial_3207_5628" cx="0" cy="0" r="1" gradientUnits="userSpaceOnUse" gradientTransform="translate(52.1742 12.7287) scale(27.8953 27.8953)">
<stop stop-color="#FECF00"/>
<stop offset="1" stop-color="#D44819"/>
</radialGradient>
<radialGradient id="paint10_radial_3207_5628" cx="0" cy="0" r="1" gradientUnits="userSpaceOnUse" gradientTransform="translate(6.13581 52.4149) scale(6.30148)">
<stop stop-color="#0072B8"/>
<stop offset="1" stop-color="#1A3861"/>
</radialGradient>
<radialGradient id="paint11_radial_3207_5628" cx="0" cy="0" r="1" gradientUnits="userSpaceOnUse" gradientTransform="translate(18.0112 52.4597) scale(5.91432)">
<stop stop-color="#0072B8"/>
<stop offset="1" stop-color="#1A3861"/>
</radialGradient>
<radialGradient id="paint12_radial_3207_5628" cx="0" cy="0" r="1" gradientUnits="userSpaceOnUse" gradientTransform="translate(29.7741 52.4149) scale(6.30148)">
<stop stop-color="#0072B8"/>
<stop offset="1" stop-color="#1A3861"/>
</radialGradient>
<radialGradient id="paint13_radial_3207_5628" cx="0" cy="0" r="1" gradientUnits="userSpaceOnUse" gradientTransform="translate(43.3779 52.4149) scale(6.2033)">
<stop stop-color="#0072B8"/>
<stop offset="1" stop-color="#1A3861"/>
</radialGradient>
<radialGradient id="paint14_radial_3207_5628" cx="0" cy="0" r="1" gradientUnits="userSpaceOnUse" gradientTransform="translate(56.26 52.5955) scale(5.91603)">
<stop stop-color="#0072B8"/>
<stop offset="1" stop-color="#1A3861"/>
</radialGradient>
<radialGradient id="paint15_radial_3207_5628" cx="0" cy="0" r="1" gradientUnits="userSpaceOnUse" gradientTransform="translate(66.8469 50.2001) scale(6.50969)">
<stop stop-color="#0072B8"/>
<stop offset="1" stop-color="#1A3861"/>
</radialGradient>
<radialGradient id="paint16_radial_3207_5628" cx="0" cy="0" r="1" gradientUnits="userSpaceOnUse" gradientTransform="translate(81.6502 52.4597) scale(6.13563)">
<stop stop-color="#0072B8"/>
<stop offset="1" stop-color="#1A3861"/>
</radialGradient>
<radialGradient id="paint17_radial_3207_5628" cx="0" cy="0" r="1" gradientUnits="userSpaceOnUse" gradientTransform="translate(93.8639 52.4149) scale(6.30148 6.30148)">
<stop stop-color="#0072B8"/>
<stop offset="1" stop-color="#1A3861"/>
</radialGradient>
<radialGradient id="paint18_radial_3207_5628" cx="0" cy="0" r="1" gradientUnits="userSpaceOnUse" gradientTransform="translate(73.3263 50.7704) scale(7.23543 7.23544)">
<stop stop-color="#FECF00"/>
<stop offset="1" stop-color="#D44819"/>
</radialGradient>
</defs>
</svg>
