<svg width="13" height="13" viewBox="0 0 13 13" fill="none" xmlns="http://www.w3.org/2000/svg">
<path d="M6.5 0.8125C4.25669 0.8125 2.4375 2.72756 2.4375 5.0895C2.4375 7.45144 6.5 12.1875 6.5 12.1875C6.5 12.1875 10.5625 7.45144 10.5625 5.0895C10.5625 2.72756 8.74331 0.8125 6.5 0.8125ZM6.5 3.18906C6.85909 3.18906 7.20347 3.33918 7.45746 3.60642C7.71144 3.87366 7.85423 4.23615 7.85444 4.61419C7.85444 4.99237 7.71174 5.35506 7.45773 5.62248C7.20373 5.88989 6.85922 6.04012 6.5 6.04012C6.14078 6.04012 5.79627 5.88989 5.54227 5.62248C5.28826 5.35506 5.14556 4.99237 5.14556 4.61419C5.14577 4.23615 5.28856 3.87366 5.54254 3.60642C5.79652 3.33918 6.14091 3.18906 6.5 3.18906Z" fill="#0E1EAE"/>
</svg>
